#!OML:ASF E:\Steps\Project 1\Capture day 1\Session 2\Subject.ASF
:FULLY-SPECIFIED
:DEGREES
471
root 3.43384 17.9314 7.7977 -155.681 -2.65546 178.484
lowerback -29.8189 -2.16864 -7.22581
upperback -2.08465 -1.19776 -0.412259
thorax 13.4202 -1.28584 2.92486
lowerneck -3.7961 -2.71242 -2.40936
upperneck 0.841899 -3.64063 4.52773
head 1.04367 -1.78847 1.74928
rclavicle 7.90169e-015 1.35174e-014
rhumerus -35.9647 -16.4548 -80.0574
rradius 33.5118
rwrist -3.20031
rhand -5.88654 -51.504
rfingers 7.12502
rthumb 19.9414 -440.501
lclavicle 7.90169e-015 1.35174e-014
lhumerus -28.8886 0.571579 81.902
lradius 20.9695
lwrist -4.68687
lhand -20.3013 -11.4414
lfingers 7.12502
lthumb 6.0489 18.4523
rfemur -21.7336 6.35366 20.1872
rtibia 8.16391
rfoot -20.0531 -1.06506
rtoes -24.665
lfemur -20.9111 -5.68312 -23.5882
ltibia 8.83849
lfoot -9.49538 -2.29408
ltoes -16.889
472
root 3.42824 17.9303 7.80339 -155.696 -2.84246 178.538
lowerback -29.8154 -2.12387 -7.12395
upperback -2.05467 -1.16054 -0.444942
thorax 13.4487 -1.26108 2.84973
lowerneck -3.72374 -2.7763 -2.4811
upperneck 0.505363 -3.72779 4.81481
head 0.937414 -1.83656 1.85438
rclavicle 8.89561e-015 1.82882e-014
rhumerus -35.9717 -17.0029 -79.7637
rradius 33.0495
rwrist -2.789
rhand -5.92734 -50.7667
rfingers 7.12502
rthumb 19.9022 -439.768
lclavicle 8.89561e-015 1.82882e-014
lhumerus -28.7588 0.86754 81.6702
lradius 20.5051
lwrist -5.08421
lhand -20.7239 -11.4327
lfingers 7.12502
lthumb 5.64097 18.4722
rfemur -21.7133 6.23217 20.2904
rtibia 8.20486
rfoot -20.1056 -1.02524
rtoes -24.218
lfemur -20.9434 -5.69349 -23.5423
ltibia 8.95252
lfoot -9.54455 -2.43694
ltoes -16.766
473
root 3.42332 17.9329 7.80661 -155.592 -2.9012 178.331
lowerback -29.9641 -2.13703 -7.31363
upperback -2.0251 -1.09169 -0.548598
thorax 13.5384 -1.24395 2.86121
lowerneck -3.7122 -2.82892 -2.40124
upperneck 0.373415 -3.80323 4.88583
head 0.89667 -1.8766 1.862
rclavicle 2.38542e-015 1.43125e-014
rhumerus -35.9874 -17.5085 -79.5224
rradius 32.6541
rwrist -2.27932
rhand -5.97968 -50.7878
rfingers 7.12502
rthumb 19.8519 -439.794
lclavicle 2.38542e-015 1.43125e-014
lhumerus -28.6581 1.32434 81.3689
lradius 20.0964
lwrist -5.68864
lhand -20.8532 -11.643
lfingers 7.12502
lthumb 5.5161 18.2652
rfemur -21.8293 6.12879 20.0363
rtibia 8.23999
rfoot -20.1746 -1.04948
rtoes -24.0665
lfemur -21.0706 -5.689 -23.8231
ltibia 9.02133
lfoot -9.52688 -2.64415
ltoes -16.9954
474
root 3.4253 17.9321 7.80751 -155.735 -3.03191 178.486
lowerback -29.8369 -2.10388 -7.20814
upperback -2.00183 -1.08294 -0.536832
thorax 13.5088 -1.22897 2.82498
lowerneck -3.68192 -2.72335 -2.37327
upperneck 0.448541 -3.66675 4.91037
head 0.90985 -1.80758 1.86825
rclavicle -8.49804e-015 -5.56597e-015
rhumerus -36.0584 -17.7362 -79.4036
rradius 32.3835
rwrist -2.0791
rhand -5.87546 -51.914
rfingers 7.12502
rthumb 19.9521 -440.91
lclavicle -8.49804e-015 -5.56597e-015
lhumerus -28.5949 1.76296 81.0333
lradius 19.7097
lwrist -6.02602
lhand -20.7838 -11.7627
lfingers 7.12502
lthumb 5.58309 18.1437
rfemur -21.6324 6.49083 20.1944
rtibia 8.13609
rfoot -20.1681 -1.46731
rtoes -24.1304
lfemur -20.961 -5.65914 -23.603
ltibia 8.99823
lfoot -9.47055 -2.76884
ltoes -16.7804
475
root 3.42439 17.9308 7.80848 -155.79 -3.18385 178.637
lowerback -29.7623 -2.08038 -7.06097
upperback -2.0299 -1.11042 -0.516892
thorax 13.4468 -1.23057 2.75926
lowerneck -3.71177 -2.72063 -2.33136
upperneck 0.435721 -3.66429 4.88738
head 0.909263 -1.8065 1.85312
rclavicle 1.98785e-016 2.10712e-014
rhumerus -36.1533 -17.9281 -79.2511
rradius 32.0383
rwrist -1.88596
rhand -5.78692 -52.034
rfingers 7.12502
rthumb 20.0372 -441.021
lclavicle 1.98785e-016 2.10712e-014
lhumerus -28.6814 2.06501 80.7731
lradius 19.4686
lwrist -6.1882
lhand -20.8134 -11.4032
lfingers 7.12502
lthumb 5.55451 18.504
rfemur -21.5985 6.63878 20.3699
rtibia 8.18752
rfoot -20.1663 -1.69196
rtoes -24.1435
lfemur -20.9549 -5.67177 -23.3926
ltibia 9.02725
lfoot -9.49076 -2.82706
ltoes -17.2162
476
root 3.41512 17.9306 7.81397 -155.735 -3.35871 178.601
lowerback -29.7301 -2.1106 -6.99113
upperback -2.07123 -1.18061 -0.534952
thorax 13.3909 -1.25759 2.67564
lowerneck -3.78798 -2.66037 -2.35183
upperneck 0.407386 -3.58011 4.85032
head 0.909747 -1.7642 1.84593
rclavicle -8.34896e-015 1.98785e-014
rhumerus -36.1521 -18.3054 -78.9411
rradius 31.4549
rwrist -1.49298
rhand -5.86587 -50.5201
rfingers 7.12502
rthumb 19.9613 -439.515
lclavicle -8.34896e-015 1.98785e-014
lhumerus -28.7854 2.39708 80.5541
lradius 19.2469
lwrist -6.34609
lhand -20.7761 -11.2772
lfingers 7.12502
lthumb 5.59048 18.6291
rfemur -21.7441 6.30116 20.3851
rtibia 8.39671
rfoot -20.2678 -1.53341
rtoes -24.1325
lfemur -21.0621 -5.71456 -23.4685
ltibia 9.12944
lfoot -9.54939 -2.95041
ltoes -18.0287
